<svg width="187" height="60" viewBox="0 0 187 60" fill="none" xmlns="http://www.w3.org/2000/svg">
<g clip-path="url(#clip0_1_7)">
<path d="M0 30C0 20.6812 0 16.0218 1.52241 12.3463C3.55229 7.44577 7.44577 3.55229 12.3463 1.52241C16.0218 0 20.6812 0 30 0C39.3188 0 43.9782 0 47.6537 1.52241C52.5542 3.55229 56.4477 7.44577 58.4776 12.3463C60 16.0218 60 20.6812 60 30C60 39.3188 60 43.9782 58.4776 47.6537C56.4477 52.5542 52.5542 56.4477 47.6537 58.4776C43.9782 60 39.3188 60 30 60C20.6812 60 16.0218 60 12.3463 58.4776C7.44577 56.4477 3.55229 52.5542 1.52241 47.6537C0 43.9782 0 39.3188 0 30Z" fill="white"/>
<path d="M44.5313 31.7861L35.6731 16.2919L35.7019 16.2454C33.9914 13.2489 29.712 13.2489 28.0014 16.2454L14.4492 39.9434C14.144 40.4845 14 41.0605 14 41.6249C14 43.3878 15.3938 44.9995 17.3405 44.9995C18.5328 44.9995 19.6328 44.3537 20.2318 43.318L30.9388 24.5772C31.3305 23.8906 32.3096 23.8906 32.7012 24.5772L36.059 30.4479C36.3988 31.0414 35.9726 31.7861 35.293 31.7861H31.5205C29.6775 31.7861 28.1857 33.293 28.1857 35.1549V35.1607C28.1857 37.0226 29.6775 38.5295 31.5205 38.5295H40.6724H42.7401C45.2455 38.5295 46.8121 35.7891 45.5623 33.5956L44.5313 31.7861Z" fill="url(#paint0_linear_1_7)"/>
<path d="M100.572 27.7129C100.572 29.1631 100.203 30.4331 99.4644 31.5229C98.7349 32.604 97.6978 33.3774 96.353 33.8433L100.216 40H96.6694L93.1494 34.3047H89.4976V40H85.9907V21.0947H93.4263C95.6323 21.0947 97.3726 21.7144 98.647 22.9536C99.9302 24.1841 100.572 25.7705 100.572 27.7129ZM89.4844 31.4966H93.0703C94.2129 31.4966 95.1621 31.1362 95.918 30.4155C96.6826 29.686 97.0649 28.7852 97.0649 27.7129C97.0737 26.6494 96.6958 25.7485 95.9312 25.0103C95.1753 24.272 94.2217 23.9028 93.0703 23.9028H89.4844V31.4966ZM112.78 29.2158H123.01V30.5474C123.01 32.3843 122.571 34.041 121.692 35.5176C120.822 36.9941 119.635 38.1455 118.132 38.9717C116.629 39.7891 114.964 40.1978 113.136 40.1978C111.299 40.1978 109.629 39.7891 108.126 38.9717C106.623 38.1455 105.437 36.9941 104.566 35.5176C103.705 34.041 103.274 32.3843 103.274 30.5474C103.274 28.7104 103.705 27.0537 104.566 25.5771C105.437 24.1006 106.623 22.9536 108.126 22.1362C109.629 21.3101 111.299 20.897 113.136 20.897C114.981 20.897 116.651 21.3188 118.146 22.1626C119.648 22.9976 120.813 24.1401 121.639 25.5903L118.554 27.0801C118 26.166 117.245 25.4453 116.287 24.918C115.329 24.3906 114.278 24.127 113.136 24.127C111.343 24.127 109.822 24.7422 108.574 25.9727C107.335 27.1943 106.715 28.7192 106.715 30.5474C106.715 32.3667 107.335 33.896 108.574 35.1353C109.822 36.3657 111.343 36.981 113.136 36.981C114.533 36.981 115.794 36.5415 116.919 35.6626C118.053 34.7749 118.835 33.6807 119.266 32.3799H112.78V29.2158ZM147.453 25.1553H150.959L145.976 40H141.415L137.736 29.2686L134.032 40H129.483L124.487 25.1553H128.007L131.856 36.8887L135.943 25.1553H139.516L143.59 36.8887L147.453 25.1553ZM159.792 24.9312C160.953 24.9312 162.029 25.1421 163.022 25.564C164.024 25.9858 164.877 26.5703 165.58 27.3174C166.283 28.0645 166.819 28.9873 167.188 30.0859C167.558 31.1846 167.707 32.3843 167.637 33.6851H155.231C155.459 34.8452 155.996 35.7856 156.839 36.5063C157.683 37.2183 158.667 37.5742 159.792 37.5742C160.759 37.5742 161.616 37.3237 162.363 36.8228C163.119 36.313 163.695 35.6143 164.09 34.7266L166.912 36.0845C166.261 37.3589 165.294 38.3652 164.011 39.1035C162.728 39.8418 161.322 40.2109 159.792 40.2109C158.72 40.2109 157.701 40.0308 156.734 39.6704C155.767 39.3013 154.919 38.7915 154.189 38.1411C153.469 37.4907 152.893 36.6865 152.462 35.7285C152.041 34.7617 151.83 33.7114 151.83 32.5776C151.83 31.4438 152.041 30.3979 152.462 29.4399C152.893 28.4731 153.469 27.6646 154.189 27.0142C154.919 26.355 155.767 25.8452 156.734 25.4849C157.701 25.1157 158.72 24.9312 159.792 24.9312ZM159.792 27.5811C158.615 27.5811 157.613 27.937 156.787 28.6489C155.96 29.3608 155.438 30.3013 155.218 31.4702H164.38C164.161 30.2925 163.638 29.3521 162.812 28.6489C161.985 27.937 160.979 27.5811 159.792 27.5811ZM179.212 24.9312C180.513 24.9312 181.704 25.2607 182.785 25.9199C183.875 26.5703 184.731 27.48 185.355 28.6489C185.988 29.8179 186.305 31.1274 186.305 32.5776C186.305 34.0278 185.988 35.3374 185.355 36.5063C184.731 37.6753 183.875 38.585 182.785 39.2354C181.704 39.8857 180.513 40.2109 179.212 40.2109C176.373 40.2109 174.519 39.3584 173.648 37.6533L173.503 40H170.353V19.75H173.648V27.502C174.105 26.7021 174.822 26.0737 175.797 25.6167C176.782 25.1597 177.92 24.9312 179.212 24.9312ZM178.329 37.3896C179.629 37.3896 180.732 36.9326 181.638 36.0186C182.543 35.1045 182.996 33.9575 182.996 32.5776C182.996 31.189 182.543 30.0376 181.638 29.1235C180.732 28.2095 179.629 27.7524 178.329 27.7524C177.028 27.7524 175.92 28.2139 175.006 29.1367C174.101 30.0508 173.648 31.1978 173.648 32.5776C173.648 33.9487 174.105 35.0957 175.02 36.0186C175.934 36.9326 177.037 37.3896 178.329 37.3896Z" fill="black"/>
</g>
<defs>
<linearGradient id="paint0_linear_1_7" x1="22.7306" y1="17.2023" x2="42.6758" y2="32.9132" gradientUnits="userSpaceOnUse">
<stop stop-color="#5D59EA"/>
<stop offset="1" stop-color="#9A91FF"/>
</linearGradient>
<clipPath id="clip0_1_7">
<rect width="187" height="60" fill="white"/>
</clipPath>
</defs>
</svg>
